<svg width="512" height="512" xmlns="http://www.w3.org/2000/svg">
 <defs>
  <linearGradient id="svg_4" x1="0" y1="0" x2="1" y2="1">
   <stop stop-color="#ff5656" offset="0.22656"/>
   <stop stop-color="#00a9a9" offset="0.875"/>
  </linearGradient>
 </defs>
 <g>
  <title>Layer 1</title>
  <ellipse stroke="#ffffff" fill="url(#svg_4)" cx="256" cy="256.00001" id="svg_1" rx="254.50001" ry="254.00001"/>
  <path stroke="#ffffff" fill="#ffffff" d="m174.42584,367.98394c-6.20098,12.97914 -10.54266,19.79201 -31.63673,26.59625c-3.72749,1.85445 1.23687,6.18375 3.72749,5.56288c18.60345,-7.41711 22.945,-13.60887 31.63673,-27.21736c4.34167,17.32555 14.26177,28.45898 31.01417,35.26322l1.24524,-3.71692c22.95349,12.3754 40.32007,14.85083 55.20453,11.75464c14.27015,-3.09594 31.01417,-5.56264 44.67012,-3.70819c-8.68335,-6.80485 -13.65596,-14.85072 -15.50714,-24.74254c14.2619,-14.85023 42.17962,-9.27932 55.82721,-17.93816l-3.10481,-6.81274c29.77729,-9.89193 55.2129,-25.97576 90.56874,-21.02536l-58.30933,-42.06784l1.23687,-5.57126c-17.36658,-12.98764 -37.21528,-16.08382 -59.55446,-7.41674c7.44635,-21.65485 0,-45.15577 20.47963,-61.85985c-4.96423,-9.27958 0,-22.26733 8.68335,-34.02199c1.24537,-22.26722 7.43798,-42.06371 18.60345,-60.00199c-17.98914,11.75464 -35.97002,22.26722 -54.58185,31.55103l-3.10481,-6.80849c-7.43798,11.75854 -17.98926,20.41724 -32.25941,25.35903l-2.48212,-6.80424c-19.2345,19.17977 -42.17962,29.07159 -56.4499,56.91807c4.34167,-27.22562 -3.72736,-53.82213 -14.89272,-75.47284l-4.34167,4.33341c-8.06066,-26.60063 -36.59271,-43.92205 -54.58185,-65.57265c7.43798,59.38477 -14.27865,66.806 -13.6477,99.59464l-7.45474,0.61224c10.55116,33.40938 -3.7191,48.87234 3.10481,71.76053c-17.36658,-8.65883 -39.70589,-2.47532 -54.59035,-16.08395c17.98914,28.45933 24.19875,63.09356 54.59035,86.60249l-4.34167,1.85445c11.16534,12.3669 25.43562,22.8882 50.24855,29.0802l0,0.00001z" id="svg_8"/>
 </g>
</svg>