<?xml version="1.0" standalone="no"?><!DOCTYPE svg PUBLIC "-//W3C//DTD SVG 1.1//EN" "http://www.w3.org/Graphics/SVG/1.1/DTD/svg11.dtd"><svg t="1662222152484" class="icon" viewBox="0 0 1024 1024" version="1.1" xmlns="http://www.w3.org/2000/svg" p-id="11354" xmlns:xlink="http://www.w3.org/1999/xlink" width="200" height="200"><path d="M414.293333 268.373333a42.666667 42.666667 0 0 0-60.586666 0l-213.333334 213.333334a42.666667 42.666667 0 0 0 0 60.586666l213.333334 213.333334a42.581333 42.581333 0 0 0 60.586666 0 42.624 42.624 0 0 0 0-60.586667L230.826667 512l183.466666-183.04a42.666667 42.666667 0 0 0 0-60.586667z m469.333334 213.333334l-213.333334-213.333334a42.837333 42.837333 0 1 0-60.586666 60.586667l183.466666 183.04-183.466666 183.04a42.709333 42.709333 0 0 0 13.866666 69.930667 42.624 42.624 0 0 0 46.72-9.386667l213.333334-213.333333a42.538667 42.538667 0 0 0 9.344-46.677334 42.581333 42.581333 0 0 0-9.386667-13.866666z" fill="#e6e6e6" p-id="11355"></path></svg>